<mxfile host="app.diagrams.net" agent="Mozilla/5.0 (Windows NT 10.0; Win64; x64) AppleWebKit/537.36 (KHTML, like Gecko) Chrome/135.0.0.0 Safari/537.36" version="26.2.14">
  <diagram name="Pagina-1" id="DEw34Z0X7PWGlTcNJ1Iy">
    <mxGraphModel dx="1426" dy="863" grid="1" gridSize="10" guides="1" tooltips="1" connect="1" arrows="1" fold="1" page="1" pageScale="1" pageWidth="1200" pageHeight="1920" math="0" shadow="0">
      <root>
        <mxCell id="0" />
        <mxCell id="1" parent="0" />
        <mxCell id="WvYBxX-h6tSdPv9BnkZN-88" value="Client/Pipeline" style="rounded=1;whiteSpace=wrap;html=1;" parent="1" vertex="1">
          <mxGeometry x="80" y="440" width="120" height="60" as="geometry" />
        </mxCell>
        <mxCell id="WvYBxX-h6tSdPv9BnkZN-87" value="Client/Pipeline" style="rounded=1;whiteSpace=wrap;html=1;" parent="1" vertex="1">
          <mxGeometry x="60" y="400" width="120" height="60" as="geometry" />
        </mxCell>
        <mxCell id="WvYBxX-h6tSdPv9BnkZN-69" value="" style="shape=cylinder3;whiteSpace=wrap;html=1;boundedLbl=1;backgroundOutline=1;size=15;fillColor=none;" parent="1" vertex="1">
          <mxGeometry x="490" y="610" width="220" height="200" as="geometry" />
        </mxCell>
        <mxCell id="WvYBxX-h6tSdPv9BnkZN-23" value="Test Server" style="rounded=0;whiteSpace=wrap;html=1;" parent="1" vertex="1">
          <mxGeometry x="966.25" y="420" width="130" height="60" as="geometry" />
        </mxCell>
        <mxCell id="WvYBxX-h6tSdPv9BnkZN-22" value="Test Server" style="rounded=0;whiteSpace=wrap;html=1;" parent="1" vertex="1">
          <mxGeometry x="938.25" y="380" width="130" height="60" as="geometry" />
        </mxCell>
        <mxCell id="WvYBxX-h6tSdPv9BnkZN-21" value="Test Server" style="rounded=0;whiteSpace=wrap;html=1;" parent="1" vertex="1">
          <mxGeometry x="906.25" y="340" width="130" height="60" as="geometry" />
        </mxCell>
        <mxCell id="WvYBxX-h6tSdPv9BnkZN-1" value="QAOps DataMiner" style="rounded=1;whiteSpace=wrap;html=1;" parent="1" vertex="1">
          <mxGeometry x="240" y="270" width="120" height="60" as="geometry" />
        </mxCell>
        <mxCell id="WvYBxX-h6tSdPv9BnkZN-2" value="Test Server" style="rounded=0;whiteSpace=wrap;html=1;" parent="1" vertex="1">
          <mxGeometry x="891.25" y="300" width="130" height="60" as="geometry" />
        </mxCell>
        <mxCell id="WvYBxX-h6tSdPv9BnkZN-8" value="QAOps as a Service (Internet QAOps)" style="text;html=1;align=center;verticalAlign=middle;whiteSpace=wrap;rounded=0;" parent="1" vertex="1">
          <mxGeometry y="50" width="1200" height="30" as="geometry" />
        </mxCell>
        <mxCell id="WvYBxX-h6tSdPv9BnkZN-10" value="Skyline Azure Message Queues" style="shape=hexagon;perimeter=hexagonPerimeter2;whiteSpace=wrap;html=1;fixedSize=1;" parent="1" vertex="1">
          <mxGeometry x="400" y="270" width="450" height="40" as="geometry" />
        </mxCell>
        <mxCell id="WvYBxX-h6tSdPv9BnkZN-13" value="" style="endArrow=classic;startArrow=classic;html=1;rounded=0;entryX=0;entryY=0.5;entryDx=0;entryDy=0;" parent="1" source="WvYBxX-h6tSdPv9BnkZN-1" target="WvYBxX-h6tSdPv9BnkZN-10" edge="1">
          <mxGeometry width="50" height="50" relative="1" as="geometry">
            <mxPoint x="570" y="590" as="sourcePoint" />
            <mxPoint x="620" y="540" as="targetPoint" />
          </mxGeometry>
        </mxCell>
        <mxCell id="WvYBxX-h6tSdPv9BnkZN-14" value="" style="endArrow=classic;startArrow=classic;html=1;rounded=0;exitX=0.25;exitY=0;exitDx=0;exitDy=0;" parent="1" source="WvYBxX-h6tSdPv9BnkZN-2" target="WvYBxX-h6tSdPv9BnkZN-10" edge="1">
          <mxGeometry width="50" height="50" relative="1" as="geometry">
            <mxPoint x="319.25" y="340" as="sourcePoint" />
            <mxPoint x="881.25" y="300" as="targetPoint" />
          </mxGeometry>
        </mxCell>
        <mxCell id="WvYBxX-h6tSdPv9BnkZN-15" value="Catalog (dmapp&#39;s, dmprotocols)" style="shape=hexagon;perimeter=hexagonPerimeter2;whiteSpace=wrap;html=1;fixedSize=1;" parent="1" vertex="1">
          <mxGeometry x="760" y="210" width="300" height="20" as="geometry" />
        </mxCell>
        <mxCell id="WvYBxX-h6tSdPv9BnkZN-19" value="Skyline Azure Package Storage" style="shape=hexagon;perimeter=hexagonPerimeter2;whiteSpace=wrap;html=1;fixedSize=1;" parent="1" vertex="1">
          <mxGeometry x="575" y="240" width="285" height="20" as="geometry" />
        </mxCell>
        <mxCell id="WvYBxX-h6tSdPv9BnkZN-20" style="edgeStyle=orthogonalEdgeStyle;rounded=0;orthogonalLoop=1;jettySize=auto;html=1;exitX=1;exitY=0.5;exitDx=0;exitDy=0;entryX=0.346;entryY=-0.033;entryDx=0;entryDy=0;entryPerimeter=0;" parent="1" source="WvYBxX-h6tSdPv9BnkZN-19" target="WvYBxX-h6tSdPv9BnkZN-2" edge="1">
          <mxGeometry relative="1" as="geometry" />
        </mxCell>
        <mxCell id="WvYBxX-h6tSdPv9BnkZN-26" style="edgeStyle=orthogonalEdgeStyle;rounded=0;orthogonalLoop=1;jettySize=auto;html=1;exitX=0.5;exitY=0;exitDx=0;exitDy=0;entryX=0;entryY=0.5;entryDx=0;entryDy=0;" parent="1" source="WvYBxX-h6tSdPv9BnkZN-24" target="WvYBxX-h6tSdPv9BnkZN-15" edge="1">
          <mxGeometry relative="1" as="geometry" />
        </mxCell>
        <mxCell id="WvYBxX-h6tSdPv9BnkZN-27" value="CICD.Tools.CatalogUpload" style="edgeLabel;html=1;align=center;verticalAlign=middle;resizable=0;points=[];" parent="WvYBxX-h6tSdPv9BnkZN-26" connectable="0" vertex="1">
          <mxGeometry x="-0.4229" y="-3" relative="1" as="geometry">
            <mxPoint as="offset" />
          </mxGeometry>
        </mxCell>
        <mxCell id="WvYBxX-h6tSdPv9BnkZN-29" style="edgeStyle=orthogonalEdgeStyle;rounded=0;orthogonalLoop=1;jettySize=auto;html=1;exitX=0.75;exitY=0;exitDx=0;exitDy=0;entryX=0;entryY=0.5;entryDx=0;entryDy=0;" parent="1" source="WvYBxX-h6tSdPv9BnkZN-24" target="WvYBxX-h6tSdPv9BnkZN-19" edge="1">
          <mxGeometry relative="1" as="geometry" />
        </mxCell>
        <mxCell id="WvYBxX-h6tSdPv9BnkZN-30" value="QAOps.TestPackage" style="edgeLabel;html=1;align=center;verticalAlign=middle;resizable=0;points=[];" parent="WvYBxX-h6tSdPv9BnkZN-29" connectable="0" vertex="1">
          <mxGeometry x="-0.1132" y="-2" relative="1" as="geometry">
            <mxPoint as="offset" />
          </mxGeometry>
        </mxCell>
        <mxCell id="yKAPl4sxNkq1IPUFVivm-1" style="edgeStyle=orthogonalEdgeStyle;rounded=0;orthogonalLoop=1;jettySize=auto;html=1;exitX=0.25;exitY=0;exitDx=0;exitDy=0;entryX=0;entryY=0.5;entryDx=0;entryDy=0;" edge="1" parent="1" source="WvYBxX-h6tSdPv9BnkZN-24" target="WvYBxX-h6tSdPv9BnkZN-28">
          <mxGeometry relative="1" as="geometry" />
        </mxCell>
        <mxCell id="yKAPl4sxNkq1IPUFVivm-4" value="CICD.Tools.DataMinerHotFix + Upload" style="edgeLabel;html=1;align=center;verticalAlign=middle;resizable=0;points=[];" vertex="1" connectable="0" parent="yKAPl4sxNkq1IPUFVivm-1">
          <mxGeometry x="-0.4888" relative="1" as="geometry">
            <mxPoint x="96" as="offset" />
          </mxGeometry>
        </mxCell>
        <mxCell id="WvYBxX-h6tSdPv9BnkZN-24" value="Client/Pipeline" style="rounded=1;whiteSpace=wrap;html=1;" parent="1" vertex="1">
          <mxGeometry x="35" y="360" width="120" height="60" as="geometry" />
        </mxCell>
        <mxCell id="WvYBxX-h6tSdPv9BnkZN-31" style="edgeStyle=orthogonalEdgeStyle;rounded=0;orthogonalLoop=1;jettySize=auto;html=1;exitX=1;exitY=0.75;exitDx=0;exitDy=0;entryX=1;entryY=0.25;entryDx=0;entryDy=0;" parent="1" source="WvYBxX-h6tSdPv9BnkZN-28" target="WvYBxX-h6tSdPv9BnkZN-2" edge="1">
          <mxGeometry relative="1" as="geometry" />
        </mxCell>
        <mxCell id="WvYBxX-h6tSdPv9BnkZN-28" value="Skyline Azure Blobstorage .dmupgrade" style="shape=hexagon;perimeter=hexagonPerimeter2;whiteSpace=wrap;html=1;fixedSize=1;" parent="1" vertex="1">
          <mxGeometry x="820" y="170" width="290" height="20" as="geometry" />
        </mxCell>
        <mxCell id="WvYBxX-h6tSdPv9BnkZN-33" style="edgeStyle=orthogonalEdgeStyle;rounded=0;orthogonalLoop=1;jettySize=auto;html=1;exitX=0.625;exitY=1;exitDx=0;exitDy=0;entryX=0.677;entryY=-0.033;entryDx=0;entryDy=0;entryPerimeter=0;" parent="1" source="WvYBxX-h6tSdPv9BnkZN-15" target="WvYBxX-h6tSdPv9BnkZN-2" edge="1">
          <mxGeometry relative="1" as="geometry" />
        </mxCell>
        <mxCell id="WvYBxX-h6tSdPv9BnkZN-34" value="Self-Hosted Variant (Air-Gapped QAOps)" style="text;html=1;align=center;verticalAlign=middle;whiteSpace=wrap;rounded=0;" parent="1" vertex="1">
          <mxGeometry y="560" width="1200" height="30" as="geometry" />
        </mxCell>
        <mxCell id="WvYBxX-h6tSdPv9BnkZN-35" value="QAOps DataMiner" style="rounded=1;whiteSpace=wrap;html=1;" parent="1" vertex="1">
          <mxGeometry x="541.25" y="650" width="120" height="60" as="geometry" />
        </mxCell>
        <mxCell id="WvYBxX-h6tSdPv9BnkZN-36" value="Test Server" style="rounded=0;whiteSpace=wrap;html=1;" parent="1" vertex="1">
          <mxGeometry x="866.25" y="600" width="130" height="60" as="geometry" />
        </mxCell>
        <mxCell id="WvYBxX-h6tSdPv9BnkZN-37" value="Local MessageBroker (NATS)" style="shape=hexagon;perimeter=hexagonPerimeter2;whiteSpace=wrap;html=1;fixedSize=1;" parent="1" vertex="1">
          <mxGeometry x="505.25" y="740" width="190" height="20" as="geometry" />
        </mxCell>
        <mxCell id="WvYBxX-h6tSdPv9BnkZN-62" style="edgeStyle=orthogonalEdgeStyle;rounded=0;orthogonalLoop=1;jettySize=auto;html=1;exitX=1;exitY=0.5;exitDx=0;exitDy=0;" parent="1" source="WvYBxX-h6tSdPv9BnkZN-41" edge="1">
          <mxGeometry relative="1" as="geometry">
            <mxPoint x="940" y="760" as="targetPoint" />
          </mxGeometry>
        </mxCell>
        <mxCell id="WvYBxX-h6tSdPv9BnkZN-41" value="Local NuGet Feed" style="shape=hexagon;perimeter=hexagonPerimeter2;whiteSpace=wrap;html=1;fixedSize=1;" parent="1" vertex="1">
          <mxGeometry x="506.25" y="760" width="190" height="20" as="geometry" />
        </mxCell>
        <mxCell id="WvYBxX-h6tSdPv9BnkZN-43" value="Test Server" style="rounded=0;whiteSpace=wrap;html=1;" parent="1" vertex="1">
          <mxGeometry x="881.25" y="640" width="130" height="60" as="geometry" />
        </mxCell>
        <mxCell id="WvYBxX-h6tSdPv9BnkZN-44" value="Test Server" style="rounded=0;whiteSpace=wrap;html=1;" parent="1" vertex="1">
          <mxGeometry x="913.25" y="680" width="130" height="60" as="geometry" />
        </mxCell>
        <mxCell id="WvYBxX-h6tSdPv9BnkZN-45" value="Test Server" style="rounded=0;whiteSpace=wrap;html=1;" parent="1" vertex="1">
          <mxGeometry x="941.25" y="720" width="130" height="60" as="geometry" />
        </mxCell>
        <mxCell id="WvYBxX-h6tSdPv9BnkZN-48" style="edgeStyle=orthogonalEdgeStyle;rounded=0;orthogonalLoop=1;jettySize=auto;html=1;exitX=0.75;exitY=1;exitDx=0;exitDy=0;entryX=0;entryY=0.5;entryDx=0;entryDy=0;" parent="1" source="WvYBxX-h6tSdPv9BnkZN-50" target="WvYBxX-h6tSdPv9BnkZN-41" edge="1">
          <mxGeometry relative="1" as="geometry" />
        </mxCell>
        <mxCell id="WvYBxX-h6tSdPv9BnkZN-49" value="QAOps.TestPackage&lt;div&gt;Includes dmapp&lt;/div&gt;&lt;div&gt;Includes dmupgrade&lt;/div&gt;" style="edgeLabel;html=1;align=center;verticalAlign=middle;resizable=0;points=[];" parent="WvYBxX-h6tSdPv9BnkZN-48" connectable="0" vertex="1">
          <mxGeometry x="-0.1132" y="-2" relative="1" as="geometry">
            <mxPoint y="4" as="offset" />
          </mxGeometry>
        </mxCell>
        <mxCell id="WvYBxX-h6tSdPv9BnkZN-76" style="edgeStyle=orthogonalEdgeStyle;rounded=0;orthogonalLoop=1;jettySize=auto;html=1;exitX=1;exitY=0.5;exitDx=0;exitDy=0;entryX=0;entryY=0.5;entryDx=0;entryDy=0;" parent="1" source="WvYBxX-h6tSdPv9BnkZN-50" target="WvYBxX-h6tSdPv9BnkZN-37" edge="1">
          <mxGeometry relative="1" as="geometry" />
        </mxCell>
        <mxCell id="WvYBxX-h6tSdPv9BnkZN-50" value="Client/Pipeline" style="rounded=1;whiteSpace=wrap;html=1;" parent="1" vertex="1">
          <mxGeometry x="58.75" y="650" width="120" height="60" as="geometry" />
        </mxCell>
        <mxCell id="WvYBxX-h6tSdPv9BnkZN-60" value="" style="endArrow=none;html=1;strokeColor=#d20a0a;bendable=1;rounded=0;endFill=0;endSize=4;edgeStyle=entityRelationEdgeStyle;startArrow=none;startFill=0;startSize=4;jumpStyle=none;jumpSize=0;targetPerimeterSpacing=15;dashed=1;strokeWidth=1.5;" parent="1" edge="1">
          <mxGeometry width="50" height="50" relative="1" as="geometry">
            <mxPoint x="20" y="340" as="sourcePoint" />
            <mxPoint x="1170" y="340" as="targetPoint" />
          </mxGeometry>
        </mxCell>
        <mxCell id="WvYBxX-h6tSdPv9BnkZN-63" value="" style="endArrow=none;html=1;rounded=0;exitX=0;exitY=0;exitDx=0;exitDy=0;entryX=1;entryY=0;entryDx=0;entryDy=0;" parent="1" source="WvYBxX-h6tSdPv9BnkZN-34" target="WvYBxX-h6tSdPv9BnkZN-34" edge="1">
          <mxGeometry width="50" height="50" relative="1" as="geometry">
            <mxPoint x="580" y="470" as="sourcePoint" />
            <mxPoint x="630" y="420" as="targetPoint" />
          </mxGeometry>
        </mxCell>
        <mxCell id="WvYBxX-h6tSdPv9BnkZN-64" value="" style="ellipse;shape=cloud;whiteSpace=wrap;html=1;" parent="1" vertex="1">
          <mxGeometry x="130" y="270" width="50" height="30" as="geometry" />
        </mxCell>
        <mxCell id="WvYBxX-h6tSdPv9BnkZN-65" value="" style="ellipse;shape=cloud;whiteSpace=wrap;html=1;" parent="1" vertex="1">
          <mxGeometry x="770" y="310" width="50" height="30" as="geometry" />
        </mxCell>
        <mxCell id="WvYBxX-h6tSdPv9BnkZN-66" value="" style="ellipse;shape=cloud;whiteSpace=wrap;html=1;" parent="1" vertex="1">
          <mxGeometry x="410" y="180" width="50" height="30" as="geometry" />
        </mxCell>
        <mxCell id="WvYBxX-h6tSdPv9BnkZN-67" value="" style="ellipse;shape=cloud;whiteSpace=wrap;html=1;" parent="1" vertex="1">
          <mxGeometry x="1018.25" y="250" width="50" height="30" as="geometry" />
        </mxCell>
        <mxCell id="WvYBxX-h6tSdPv9BnkZN-68" value="" style="ellipse;shape=cloud;whiteSpace=wrap;html=1;" parent="1" vertex="1">
          <mxGeometry x="540" y="190" width="50" height="30" as="geometry" />
        </mxCell>
        <mxCell id="WvYBxX-h6tSdPv9BnkZN-72" value="" style="edgeStyle=orthogonalEdgeStyle;rounded=0;orthogonalLoop=1;jettySize=auto;html=1;" parent="1" source="WvYBxX-h6tSdPv9BnkZN-70" target="WvYBxX-h6tSdPv9BnkZN-28" edge="1">
          <mxGeometry relative="1" as="geometry" />
        </mxCell>
        <mxCell id="WvYBxX-h6tSdPv9BnkZN-70" value="Azure DAAS Images &amp;amp; Upgrade Creation" style="sketch=0;outlineConnect=0;fontColor=#232F3E;gradientColor=none;fillColor=#7AA116;strokeColor=none;dashed=0;verticalLabelPosition=bottom;verticalAlign=top;align=center;html=1;fontSize=12;fontStyle=0;aspect=fixed;pointerEvents=1;shape=mxgraph.aws4.iot_analytics_pipeline;" parent="1" vertex="1">
          <mxGeometry x="632" y="90" width="78" height="42" as="geometry" />
        </mxCell>
        <mxCell id="WvYBxX-h6tSdPv9BnkZN-74" style="edgeStyle=orthogonalEdgeStyle;rounded=0;orthogonalLoop=1;jettySize=auto;html=1;exitX=1;exitY=0.5;exitDx=0;exitDy=0;entryX=0.375;entryY=1;entryDx=0;entryDy=0;" parent="1" source="WvYBxX-h6tSdPv9BnkZN-24" target="WvYBxX-h6tSdPv9BnkZN-10" edge="1">
          <mxGeometry relative="1" as="geometry" />
        </mxCell>
        <mxCell id="WvYBxX-h6tSdPv9BnkZN-77" value="Please Run Tests A&amp;nbsp;&lt;div&gt;on Server B&amp;nbsp;&lt;/div&gt;&lt;div&gt;when available&lt;/div&gt;" style="edgeLabel;html=1;align=center;verticalAlign=middle;resizable=0;points=[];" parent="1" connectable="0" vertex="1">
          <mxGeometry x="240" y="650" as="geometry">
            <mxPoint x="1" y="-6" as="offset" />
          </mxGeometry>
        </mxCell>
        <mxCell id="WvYBxX-h6tSdPv9BnkZN-78" value="Please Run Tests A&amp;nbsp;&lt;div&gt;on Server B&amp;nbsp;&lt;/div&gt;&lt;div&gt;when available&lt;/div&gt;" style="edgeLabel;html=1;align=center;verticalAlign=middle;resizable=0;points=[];" parent="1" connectable="0" vertex="1">
          <mxGeometry x="250" y="420" as="geometry">
            <mxPoint x="1" y="-6" as="offset" />
          </mxGeometry>
        </mxCell>
        <mxCell id="WvYBxX-h6tSdPv9BnkZN-79" value="" style="endArrow=none;html=1;strokeColor=#d20a0a;bendable=1;rounded=0;endFill=0;endSize=4;edgeStyle=entityRelationEdgeStyle;startArrow=none;startFill=0;startSize=4;jumpStyle=none;jumpSize=0;targetPerimeterSpacing=15;dashed=1;strokeWidth=1.5;" parent="1" edge="1">
          <mxGeometry width="50" height="50" relative="1" as="geometry">
            <mxPoint x="50" y="590" as="sourcePoint" />
            <mxPoint x="1200" y="590" as="targetPoint" />
          </mxGeometry>
        </mxCell>
        <mxCell id="WvYBxX-h6tSdPv9BnkZN-82" value="" style="endArrow=classic;startArrow=classic;html=1;rounded=0;entryX=0;entryY=0.5;entryDx=0;entryDy=0;exitX=0.5;exitY=0;exitDx=0;exitDy=0;" parent="1" source="WvYBxX-h6tSdPv9BnkZN-37" edge="1">
          <mxGeometry width="50" height="50" relative="1" as="geometry">
            <mxPoint x="550" y="720" as="sourcePoint" />
            <mxPoint x="600" y="711" as="targetPoint" />
          </mxGeometry>
        </mxCell>
        <mxCell id="WvYBxX-h6tSdPv9BnkZN-83" value="Advantages" style="swimlane;fontStyle=0;childLayout=stackLayout;horizontal=1;startSize=30;horizontalStack=0;resizeParent=1;resizeParentMax=0;resizeLast=0;collapsible=1;marginBottom=0;whiteSpace=wrap;html=1;" parent="1" vertex="1">
          <mxGeometry x="25" y="20" width="140" height="120" as="geometry">
            <mxRectangle x="190" y="50" width="100" height="30" as="alternateBounds" />
          </mxGeometry>
        </mxCell>
        <mxCell id="WvYBxX-h6tSdPv9BnkZN-84" value="Supports DAAS" style="text;strokeColor=none;fillColor=none;align=left;verticalAlign=middle;spacingLeft=4;spacingRight=4;overflow=hidden;points=[[0,0.5],[1,0.5]];portConstraint=eastwest;rotatable=0;whiteSpace=wrap;html=1;" parent="WvYBxX-h6tSdPv9BnkZN-83" vertex="1">
          <mxGeometry y="30" width="140" height="30" as="geometry" />
        </mxCell>
        <mxCell id="WvYBxX-h6tSdPv9BnkZN-85" value="Decoupled Scalable Messaging" style="text;strokeColor=none;fillColor=none;align=left;verticalAlign=middle;spacingLeft=4;spacingRight=4;overflow=hidden;points=[[0,0.5],[1,0.5]];portConstraint=eastwest;rotatable=0;whiteSpace=wrap;html=1;" parent="WvYBxX-h6tSdPv9BnkZN-83" vertex="1">
          <mxGeometry y="60" width="140" height="30" as="geometry" />
        </mxCell>
        <mxCell id="WvYBxX-h6tSdPv9BnkZN-86" value="Zero Maintenance for Users" style="text;strokeColor=none;fillColor=none;align=left;verticalAlign=middle;spacingLeft=4;spacingRight=4;overflow=hidden;points=[[0,0.5],[1,0.5]];portConstraint=eastwest;rotatable=0;whiteSpace=wrap;html=1;" parent="WvYBxX-h6tSdPv9BnkZN-83" vertex="1">
          <mxGeometry y="90" width="140" height="30" as="geometry" />
        </mxCell>
        <mxCell id="WvYBxX-h6tSdPv9BnkZN-89" value="" style="endArrow=classic;startArrow=classic;html=1;rounded=0;" parent="1" edge="1">
          <mxGeometry width="50" height="50" relative="1" as="geometry">
            <mxPoint x="940" y="750" as="sourcePoint" />
            <mxPoint x="695.25" y="749.5" as="targetPoint" />
          </mxGeometry>
        </mxCell>
      </root>
    </mxGraphModel>
  </diagram>
</mxfile>
